<?xml version="1.0" encoding="utf-8"?>
<!-- Generator: Adobe Illustrator 25.3.1, SVG Export Plug-In . SVG Version: 6.00 Build 0)  -->
<svg version="1.1" xmlns="http://www.w3.org/2000/svg" xmlns:xlink="http://www.w3.org/1999/xlink" x="0px" y="0px"
	 viewBox="0 0 733.3 249.2" style="enable-background:new 0 0 733.3 249.2;" xml:space="preserve">
<style type="text/css">
	.st0{display:none;}
	.st1{fill:none;stroke:#8AD2D8;stroke-width:9;stroke-miterlimit:10;}
	.st2{fill:none;stroke:#8AD2D8;stroke-width:4;stroke-miterlimit:10;}
	.st3{fill:#8AD2D8;stroke:#8AD2D8;stroke-width:4;stroke-miterlimit:10;}
</style>
<g id="Base_Rectangle" class="st0">
</g>
<g id="Layer_3">
	<rect x="23.6" y="136.9" class="st1" width="695.8" height="90.8"/>
</g>
<g id="Lines">
	<line class="st2" x1="52" y1="137.4" x2="52" y2="104.4"/>
	<line class="st2" x1="81.4" y1="137.4" x2="81.4" y2="120.9"/>
	<line class="st2" x1="99" y1="134" x2="109.7" y2="123.2"/>
	<line class="st2" x1="109.5" y1="88.9" x2="109.5" y2="123.9"/>
	<line class="st2" x1="278.2" y1="71.8" x2="278.2" y2="91.8"/>
	<line class="st2" x1="114.8" y1="135.3" x2="125.6" y2="124.5"/>
	<line class="st2" x1="125.4" y1="67.8" x2="125.4" y2="125.2"/>
	<line class="st2" x1="557.1" y1="135.1" x2="541.4" y2="119.5"/>
	<line class="st2" x1="541.6" y1="76.3" x2="541.6" y2="121.1"/>
	<line class="st2" x1="571.6" y1="137.9" x2="556" y2="122.3"/>
	<line class="st2" x1="556.2" y1="90.4" x2="556.2" y2="124"/>
	<line class="st2" x1="577.4" y1="109.2" x2="577.4" y2="133.3"/>
	<line class="st2" x1="178.5" y1="134" x2="178.5" y2="47.3"/>
	<line class="st2" x1="360.5" y1="135.1" x2="360.5" y2="67.4"/>
	<line class="st2" x1="371" y1="135.1" x2="371" y2="104.4"/>
	<line class="st2" x1="289.1" y1="134" x2="289.1" y2="47.3"/>
	<line class="st2" x1="395.2" y1="135.1" x2="395.2" y2="83.3"/>
	<line class="st2" x1="460.6" y1="134" x2="460.6" y2="40"/>
	<line class="st2" x1="200.4" y1="134" x2="200.4" y2="73.6"/>
	<line class="st2" x1="165.9" y1="74.4" x2="165.9" y2="87.9"/>
	<line class="st2" x1="165.3" y1="86.6" x2="200.3" y2="109.6"/>
	<line class="st2" x1="426.1" y1="57.3" x2="426.1" y2="91.8"/>
	<line class="st2" x1="425.6" y1="90.5" x2="460.6" y2="113.5"/>
	<line class="st2" x1="438.8" y1="44.9" x2="438.8" y2="90.4"/>
	<line class="st2" x1="438.2" y1="88.4" x2="460.6" y2="103.1"/>
	<line class="st2" x1="277.3" y1="90.4" x2="289.1" y2="98.1"/>
	<line class="st2" x1="349.6" y1="84.9" x2="349.6" y2="104.9"/>
	<line class="st2" x1="348.7" y1="103.5" x2="371" y2="118.2"/>
	<line class="st2" x1="233.9" y1="81.4" x2="199.8" y2="110.6"/>
	<line class="st2" x1="232.5" y1="83.3" x2="232.5" y2="40"/>
	<line class="st2" x1="247.1" y1="87.9" x2="199.8" y2="128.4"/>
	<line class="st2" x1="246.4" y1="89.4" x2="246.4" y2="59.3"/>
	<line class="st2" x1="312" y1="109.7" x2="289.7" y2="128.8"/>
	<line class="st2" x1="311.3" y1="111.5" x2="311.3" y2="59.3"/>
	<line class="st2" x1="608.5" y1="40.3" x2="608.5" y2="91.8"/>
	<line class="st2" x1="619.4" y1="134" x2="619.4" y2="71.3"/>
	<line class="st2" x1="690.4" y1="136" x2="690.4" y2="101.3"/>
	<line class="st2" x1="607.6" y1="90.4" x2="619.4" y2="98.1"/>
	<line class="st2" x1="642.3" y1="109.7" x2="620.1" y2="128.8"/>
	<line class="st2" x1="641.6" y1="111.5" x2="641.6" y2="59.3"/>
	<line class="st2" x1="322.4" y1="114.8" x2="300.2" y2="133.8"/>
	<line class="st2" x1="321.8" y1="116.6" x2="321.8" y2="92.8"/>
	<line class="st2" x1="482.8" y1="93.3" x2="460.6" y2="112.3"/>
	<line class="st2" x1="482.2" y1="95.1" x2="482.2" y2="67.7"/>
	<line class="st2" x1="496.3" y1="73" x2="482.2" y2="85.2"/>
	<line class="st2" x1="472.2" y1="76.4" x2="483.2" y2="86.3"/>
	<line class="st2" x1="496" y1="74.4" x2="496" y2="40.3"/>
	<circle class="st3" cx="109.5" cy="83.3" r="6.9"/>
	<circle class="st3" cx="577.4" cy="101.3" r="6.9"/>
	<circle class="st3" cx="125.4" cy="61.7" r="6.9"/>
	<circle class="st3" cx="541.6" cy="71.3" r="6.9"/>
	<circle class="st3" cx="178.5" cy="41.2" r="6.9"/>
	<circle class="st3" cx="289.1" cy="40" r="6.9"/>
	<circle class="st3" cx="359.9" cy="62.1" r="6.9"/>
	<circle class="st3" cx="608.5" cy="34.3" r="6.9"/>
	<circle class="st3" cx="438.8" cy="40.2" r="3.3"/>
	<circle class="st2" cx="469.5" cy="73.3" r="3.3"/>
	<circle class="st3" cx="371" cy="101.3" r="3.3"/>
	<circle class="st3" cx="556.2" cy="87.9" r="3.3"/>
	<circle class="st3" cx="482.2" cy="64.4" r="3.3"/>
	<circle class="st3" cx="80.8" cy="116.6" r="3.3"/>
	<circle class="st2" cx="246.4" cy="52.4" r="6.9"/>
	<circle class="st2" cx="395.2" cy="76.4" r="6.9"/>
	<circle class="st2" cx="619.4" cy="64.4" r="6.9"/>
	<circle class="st2" cx="496" cy="33.1" r="6.9"/>
	<circle class="st2" cx="460.6" cy="33.1" r="6.9"/>
	<circle class="st2" cx="165.9" cy="67.3" r="5.3"/>
	<circle class="st2" cx="278.2" cy="66.9" r="5.3"/>
	<circle class="st3" cx="321.8" cy="87.9" r="5.3"/>
	<circle class="st2" cx="311.3" cy="54.8" r="5.3"/>
	<circle class="st2" cx="349.6" cy="81.1" r="5.3"/>
	<circle class="st2" cx="641.6" cy="55.2" r="5.3"/>
	<circle class="st2" cx="426.1" cy="52.4" r="5.3"/>
	<circle class="st2" cx="200.4" cy="66.9" r="5.3"/>
	<circle class="st2" cx="232.5" cy="36" r="5.3"/>
	<circle class="st2" cx="52" cy="98.1" r="6.9"/>
	<circle class="st2" cx="690.4" cy="93.6" r="6.9"/>
</g>
</svg>
