<?xml version="1.0"?>
<svg xmlns="http://www.w3.org/2000/svg" xmlns:xlink="http://www.w3.org/1999/xlink" xmlns:svgjs="http://svgjs.com/svgjs" version="1.1" width="512" height="512" x="0" y="0" viewBox="0 0 512.001 512.001" style="enable-background:new 0 0 512 512" xml:space="preserve" class=""><g>
<path xmlns="http://www.w3.org/2000/svg" d="M431.623,335.41l-330-331C97.337,0.111,90.882-1.181,85.27,1.138C79.66,3.457,76,8.929,76,15v482  c0,6.076,3.666,11.552,9.283,13.868c5.62,2.317,12.079,1.013,16.359-3.296L247.242,361H421c6.063,0,11.529-3.65,13.854-9.249  C437.178,346.152,435.904,339.703,431.623,335.41z M241,331c-3.996,0-7.826,1.594-10.642,4.429L106,460.616V51.291L384.864,331H241z  " fill="#66fcf1" data-original="#000000" style=""/>















</g></svg>
